<?xml version="1.0" encoding="UTF-8"?>
<svg version="1.1" xmlns="http://www.w3.org/2000/svg" width="512" height="512">
<path d="M0 0 C0.83328284 -0.00581376 1.66656568 -0.01162753 2.52509952 -0.01761746 C5.31792121 -0.03221786 8.10986412 -0.01833207 10.90267944 -0.00457001 C12.92488873 -0.0091789 14.94709467 -0.01553173 16.96929359 -0.02347898 C22.52682607 -0.04019694 28.08408424 -0.03191461 33.64161777 -0.01953411 C39.63488702 -0.0104961 45.62810859 -0.02444716 51.62136841 -0.0354538 C62.68367752 -0.05222772 73.74591105 -0.05075271 84.80822068 -0.03980792 C95.02764357 -0.02974668 105.24703436 -0.02711843 115.46646118 -0.0318985 C116.14427405 -0.03220404 116.82208692 -0.03250958 117.52043958 -0.03282438 C120.27188589 -0.03406973 123.02333219 -0.03534333 125.77477846 -0.03666343 C151.58676977 -0.04890012 177.39870532 -0.0378045 203.21068802 -0.01627585 C226.14434394 0.00270666 249.07791102 0.00100816 272.01156616 -0.01811981 C297.77626852 -0.03953719 323.54092161 -0.04803231 349.30563164 -0.03567076 C352.05207188 -0.03438788 354.79851213 -0.03313652 357.54495239 -0.0318985 C358.22119866 -0.03158219 358.89744494 -0.03126588 359.59418352 -0.03093999 C369.80731953 -0.02638961 380.02041994 -0.03171208 390.23355103 -0.04181671 C401.84606106 -0.05324855 413.45848654 -0.05002013 425.07098722 -0.02869374 C430.99789351 -0.01816835 436.92461933 -0.014087 442.85152435 -0.02729034 C448.27471068 -0.039189 453.69754882 -0.03269316 459.12070346 -0.01138014 C461.08493605 -0.00690338 463.04919791 -0.0092043 465.01341176 -0.01888329 C467.67983276 -0.03101697 470.34505545 -0.01860302 473.01141357 0 C474.16002243 -0.014047 474.16002243 -0.014047 475.33183551 -0.02837777 C481.90819965 0.06356011 486.20936093 2.18919861 490.91146088 6.92778778 C493.3723237 12.4470141 493.05588717 17.73549913 493.01364136 23.71259308 C493.01825213 25.07468615 493.02460624 26.43677425 493.03255033 27.79885197 C493.04924286 31.53636728 493.04099788 35.27347387 493.02860546 39.01099062 C493.0195569 43.04378556 493.03352372 47.07651011 493.04452515 51.10929108 C493.06231705 59.00735883 493.05846742 66.90527458 493.04687458 74.8033483 C493.03784317 81.22193128 493.03661499 87.64047164 493.04096985 94.05905914 C493.04158278 94.97238308 493.04219571 95.88570701 493.04282722 96.82670742 C493.04410611 98.68207384 493.04540297 100.53744025 493.04671758 102.39280665 C493.05812535 119.79296581 493.0450066 137.19304069 493.02351612 154.59318602 C493.00564496 169.52520181 493.00874901 184.45709321 493.02719116 199.38910675 C493.04859441 216.72675214 493.05702669 234.06432365 493.04474211 251.4019804 C493.0434679 253.25054358 493.04221042 255.09910678 493.04096985 256.94766998 C493.04035275 257.85721217 493.03973564 258.76675436 493.03909984 259.70385844 C493.0356453 266.11516407 493.04147753 272.52642287 493.05088806 278.93772125 C493.06210336 286.75036276 493.05907792 294.56284351 493.03776509 302.37546659 C493.02724829 306.36206616 493.0231434 310.34839764 493.03636169 314.33499527 C493.04827866 317.98429166 493.04173513 321.63307136 493.02045149 325.28232086 C493.01386482 327.22812158 493.02692785 329.17395814 493.04068041 331.11972141 C492.94236286 342.03227916 492.94236286 342.03227916 488.50570679 346.50336456 C483.14083809 350.14946152 479.42734399 351.08519322 473.01141357 351.00672913 C471.76148931 351.01544977 471.76148931 351.01544977 470.48631406 351.02434659 C467.69349236 351.03894698 464.90154945 351.02506119 462.10873413 351.01129913 C460.08652484 351.01590802 458.0643189 351.02226086 456.04211998 351.03020811 C450.48458751 351.04692606 444.92732934 351.03864373 439.3697958 351.02626324 C433.37652656 351.01722522 427.38330499 351.03117628 421.39004517 351.04218292 C410.32773606 351.05895685 399.26550252 351.05748184 388.20319289 351.04653705 C377.98377001 351.0364758 367.76437921 351.03384756 357.54495239 351.03862762 C356.52823309 351.03908594 356.52823309 351.03908594 355.49097399 351.0395535 C352.73952768 351.04079885 349.98808139 351.04207245 347.23663511 351.04339256 C321.4246438 351.05562925 295.61270825 351.04453363 269.80072555 351.02300497 C246.86706963 351.00402246 223.93350255 351.00572097 200.99984741 351.02484894 C175.23514505 351.04626632 149.47049196 351.05476144 123.70578194 351.04239988 C120.9593417 351.04111701 118.21290144 351.03986565 115.46646118 351.03862762 C114.79021491 351.03831132 114.11396864 351.03799501 113.41723005 351.03766911 C103.20409404 351.03311874 92.99099363 351.03844121 82.77786255 351.04854584 C71.16535252 351.05997768 59.55292704 351.05674925 47.94042635 351.03542286 C42.01352006 351.02489747 36.08679425 351.02081613 30.15988922 351.03401947 C24.7367029 351.04591813 19.31386475 351.03942229 13.89071012 351.01810926 C11.92647752 351.01363251 9.96221566 351.01593342 7.99800181 351.02561241 C5.33158081 351.0377461 2.66635812 351.02533214 0 351.00672913 C-0.76573924 351.01609379 -1.53147848 351.02545846 -2.32042193 351.0351069 C-8.89678608 350.94316902 -13.19794736 348.81753052 -17.9000473 344.07894135 C-20.36091013 338.55971502 -20.04447359 333.27122999 -20.00222778 327.29413605 C-20.00683856 325.93204297 -20.01319267 324.56995487 -20.02113676 323.20787716 C-20.03782929 319.47036184 -20.02958431 315.73325526 -20.01719189 311.99573851 C-20.00814332 307.96294357 -20.02211015 303.93021902 -20.03311157 299.89743805 C-20.05090348 291.9993703 -20.04705384 284.10145455 -20.03546101 276.20338082 C-20.0264296 269.78479785 -20.02520142 263.36625749 -20.02955627 256.94766998 C-20.03016921 256.03434605 -20.03078214 255.12102212 -20.03141364 254.1800217 C-20.03269254 252.32465528 -20.03398939 250.46928887 -20.03530401 248.61392248 C-20.04671177 231.21376332 -20.03359302 213.81368844 -20.01210254 196.41354311 C-19.99423138 181.48152732 -19.99733543 166.54963592 -20.01577759 151.61762238 C-20.03718083 134.27997699 -20.04561312 116.94240548 -20.03332853 99.60474873 C-20.03205433 97.75618554 -20.03079685 95.90762235 -20.02955627 94.05905914 C-20.02893917 93.14951695 -20.02832207 92.23997476 -20.02768627 91.30287069 C-20.02423173 84.89156506 -20.03006395 78.48030626 -20.03947449 72.06900787 C-20.05068978 64.25636636 -20.04766434 56.44388562 -20.02635151 48.63126254 C-20.01583472 44.64466296 -20.01172983 40.65833149 -20.02494812 36.67173386 C-20.03686508 33.02243747 -20.03032155 29.37365776 -20.00903791 25.72440827 C-20.00245125 23.77860755 -20.01551427 21.83277098 -20.02926683 19.88700771 C-19.93094929 8.97444997 -19.93094929 8.97444997 -15.49429321 4.50336456 C-10.12942452 0.8572676 -6.41593041 -0.07846409 0 0 Z " fill="#7398D2" transform="translate(19.494293212890625,80.49663543701172)"/>
<path d="M0 0 C1.11435928 -0.0071553 2.22871857 -0.01431061 3.37684631 -0.02168274 C7.05959086 -0.03858833 10.74112137 -0.01915447 14.42382812 0.00219727 C16.98303325 0.00136875 19.54223833 -0.00108998 22.10144043 -0.00511169 C27.46477685 -0.00797101 32.82768375 0.00621545 38.19091797 0.03417969 C44.38556379 0.06623057 50.57958002 0.06621507 56.77427053 0.04896492 C62.741061 0.03308356 68.70765878 0.03994151 74.67445374 0.05690193 C77.21020491 0.06208758 79.74597422 0.06159734 82.28172302 0.05535698 C85.82493165 0.04991075 89.36706958 0.07026319 92.91015625 0.09765625 C94.48441124 0.08786743 94.48441124 0.08786743 96.09046936 0.07788086 C100.56408069 0.13673099 103.20280056 0.17212333 107.08288574 2.53944397 C110.45154272 6.3029907 110.11500824 9.56594808 110.13208008 14.39794922 C110.13865128 15.19975616 110.14522247 16.00156311 110.1519928 16.82766724 C110.17174173 19.48740731 110.18339186 22.14709089 110.19335938 24.80688477 C110.1974349 25.71451254 110.20151043 26.62214031 110.20570946 27.55727196 C110.22657691 32.36109567 110.24087575 37.16489075 110.25024414 41.96875 C110.26131059 46.93220297 110.29571117 51.89520786 110.33541584 56.85850239 C110.36155338 60.67350604 110.36993342 64.48840246 110.37352562 68.30348778 C110.37839893 70.13313003 110.39003406 71.96276725 110.40856361 73.79232216 C110.43289479 76.3539346 110.43200135 78.91438176 110.42504883 81.47607422 C110.43785889 82.23106705 110.45066895 82.98605988 110.46386719 83.76393127 C110.42755629 87.43672973 110.06394484 89.46262245 108.05070496 92.57829285 C105.05448484 95.5132966 103.45897928 95.75795142 99.38237 95.78500366 C98.41921875 95.79360413 97.4560675 95.80220459 96.46372986 95.81106567 C94.87329613 95.8174556 94.87329613 95.8174556 93.25073242 95.82397461 C92.13681122 95.8321521 91.02289001 95.84032959 89.87521362 95.84875488 C86.17658024 95.87363625 82.47798527 95.89013101 78.77929688 95.90454102 C76.88829223 95.91252653 76.88829223 95.91252653 74.95908546 95.92067337 C69.66188316 95.94190778 64.36469435 95.96103789 59.06746197 95.97229576 C51.47671683 95.98853419 43.88648365 96.02170915 36.29593152 96.07869661 C30.31477165 96.12206967 24.33384484 96.13804108 18.35251808 96.14442825 C15.80835131 96.1511578 13.26419247 96.16642365 10.72012901 96.19031906 C7.16222318 96.22183312 3.60561538 96.2220274 0.04760742 96.21459961 C-1.00660904 96.23100494 -2.0608255 96.24741028 -3.14698792 96.26431274 C-7.70776785 96.22526546 -10.29601557 96.11051228 -14.19776917 93.61282349 C-16.55089142 89.81435486 -16.74901233 86.67976151 -16.69189453 82.34008789 C-16.70503693 81.10745964 -16.70503693 81.10745964 -16.71844482 79.84992981 C-16.74040226 77.14102955 -16.72589982 74.43376956 -16.70898438 71.72485352 C-16.71235358 69.83825366 -16.71720707 67.95165591 -16.72348022 66.06506348 C-16.73084658 62.11404727 -16.72015375 58.16359684 -16.69677734 54.21264648 C-16.66828962 49.15149655 -16.68469487 44.09167229 -16.71463966 39.03057098 C-16.7327191 35.13570186 -16.72695167 31.24114634 -16.7140007 27.3462677 C-16.71066847 25.48037051 -16.71474735 23.61444472 -16.72639847 21.74858093 C-16.73911807 19.13899472 -16.71971648 16.53154633 -16.69189453 13.92211914 C-16.70201569 13.15313797 -16.71213684 12.3841568 -16.7225647 11.59187317 C-16.65086067 7.95635113 -16.12106358 5.75369323 -14.1947937 2.65235901 C-9.52976156 -0.34116656 -5.43802719 -0.06058342 0 0 Z " fill="#FECA5D" transform="translate(67.044921875,123.368896484375)"/>
<path d="M0 0 C1.7020882 1.48342577 3.39124535 2.9819209 5.0625 4.5 C5.69542969 5.04011719 6.32835937 5.58023438 6.98046875 6.13671875 C20.10186143 18.05706862 29.29967118 38.21234158 30.17709351 55.79653931 C30.24329563 58.42063599 30.2795619 61.04311894 30.30078125 63.66796875 C30.308853 64.6252034 30.31692474 65.58243805 30.32524109 66.56867981 C30.33900717 68.5814944 30.34976238 70.59433159 30.35766602 72.60717773 C30.36925262 74.66616654 30.389808 76.72512379 30.41918945 78.78393555 C30.46170333 81.7663198 30.47800499 84.74781984 30.48828125 87.73046875 C30.50578934 88.65031052 30.52329742 89.57015228 30.54133606 90.51786804 C30.51968441 96.86791181 30.51968441 96.86791181 28.21948242 100.0480957 C25.36936432 101.9665623 23.50637128 102.5 20.0625 102.5 C17.31533613 100.72960551 15.53104078 99.43708156 14.0625 96.5 C13.96992708 95.09853624 13.93737119 93.69284768 13.93652344 92.28833008 C13.93271667 91.41594193 13.92890991 90.54355377 13.92498779 89.64472961 C13.92396057 88.69591415 13.92293335 87.74709869 13.921875 86.76953125 C13.90351858 84.74803587 13.88394574 82.72655123 13.86328125 80.70507812 C13.83454904 77.52822095 13.81250615 74.3520435 13.81201172 71.17504883 C13.78882844 50.12960355 10.41540107 33.73325332 -4.4609375 17.88671875 C-15.06821033 7.66425235 -29.09838283 0.51859775 -43.9375 -0.5 C-45.02160156 -0.57734375 -46.10570312 -0.6546875 -47.22265625 -0.734375 C-63.5591493 -1.35279114 -78.89803513 4.12723654 -91.25 14.9375 C-92.82740614 16.44286712 -94.39159386 17.96230221 -95.9375 19.5 C-96.49050781 20.01820313 -97.04351562 20.53640625 -97.61328125 21.0703125 C-101.33478747 24.90215988 -103.69503013 29.47964076 -106.125 34.1875 C-106.45838379 34.82244385 -106.79176758 35.4573877 -107.13525391 36.11157227 C-112.53261868 47.02989523 -113.36085492 57.71535171 -113.125 69.75 C-113.10990372 71.09243265 -113.09622418 72.43488201 -113.08398438 73.77734375 C-113.04900604 77.01866944 -112.99992337 80.25910662 -112.9375 83.5 C-110.4625 83.005 -110.4625 83.005 -107.9375 82.5 C-107.92291748 81.71463867 -107.90833496 80.92927734 -107.89331055 80.12011719 C-107.81796959 76.49629708 -107.72159739 72.8733134 -107.625 69.25 C-107.60244141 68.01507813 -107.57988281 66.78015625 -107.55664062 65.5078125 C-107.02514899 47.14719227 -101.39194561 32.34712689 -87.9375 19.5 C-76.09713131 9.00092307 -61.94262346 4.6186099 -46.28515625 5.15625 C-30.24518609 6.15362767 -17.28763756 13.16131215 -6.34765625 24.66796875 C-2.93451428 28.67854886 -0.29762094 32.80267191 2.0625 37.5 C2.64451172 38.64275391 2.64451172 38.64275391 3.23828125 39.80859375 C8.48404116 50.81515182 8.37421184 61.75334927 8.36328125 73.67578125 C8.36717564 75.45021158 8.37151183 77.22464098 8.37626648 78.99906921 C8.38370172 82.70831328 8.3834574 86.41746212 8.37817383 90.12670898 C8.37238792 94.85044778 8.38930213 99.57379335 8.4125185 104.29746723 C8.42734229 107.96005992 8.42811577 111.62255985 8.42500877 115.28517723 C8.42551782 117.02527837 8.43067612 118.76538528 8.44082069 120.50545692 C8.50698072 133.44096361 7.44585923 144.9978668 1.375 156.6875 C0.85172119 157.70638306 0.85172119 157.70638306 0.31787109 158.74584961 C-6.70981838 171.95077399 -17.98957813 180.37039237 -31.9375 185.5 C-44.89076592 189.40241098 -60.67472915 189.49790098 -72.9375 183.5 C-73.93910156 183.01402344 -74.94070313 182.52804687 -75.97265625 182.02734375 C-90.3185336 174.3556546 -99.96136736 162.30003857 -105.2109375 147.0078125 C-107.07794798 140.56361505 -107.73979081 134.18575673 -106.9375 127.5 C-104.875 124.1875 -104.875 124.1875 -101.9375 122.5 C-98.49128924 122.5 -96.14460677 122.65445587 -93.28125 124.66015625 C-91.33669381 127.32261545 -91.3607234 129.67522696 -91.0625 132.9375 C-89.48967104 145.15523536 -85.19075517 154.23395517 -75.9375 162.5 C-65.70506413 170.20691428 -54.65624465 172.95159586 -41.9375 171.5 C-30.00140856 168.47565251 -21.5944338 162.47473119 -14.54296875 152.515625 C-8.66756931 141.47959491 -8.34269839 131.65959539 -8.40625 119.4375 C-8.40354947 117.59627071 -8.3996624 115.75504282 -8.39465332 113.91381836 C-8.38878465 110.07098701 -8.39723574 106.22852975 -8.41601562 102.38574219 C-8.43880361 97.48693557 -8.42566631 92.58900586 -8.40172577 87.69023132 C-8.38719623 83.89295983 -8.39190639 80.09589251 -8.40223694 76.2986145 C-8.4048845 74.49349867 -8.40170473 72.68836364 -8.39231873 70.88327026 C-8.33069132 55.70412872 -10.38897491 44.20811473 -20.9375 32.5 C-30.11960398 24.65288277 -40.72889322 21.09052216 -52.6796875 21.22265625 C-63.63807019 22.15556413 -73.22970237 27.29501587 -80.6875 35.25 C-90.69450498 47.41628912 -91.26483995 60.10924814 -91.328125 75.234375 C-91.49027453 83.63011713 -92.10355071 89.76435711 -98.375 95.875 C-103.82941134 99.33389499 -108.52285028 100.37221571 -114.9375 99.5 C-121.10125343 97.41207541 -126.05791517 92.25916965 -128.9375 86.5 C-129.07300789 84.06085798 -129.1502086 81.65179198 -129.17578125 79.2109375 C-129.183853 78.4748526 -129.19192474 77.7387677 -129.20024109 76.9803772 C-129.21409817 75.41174679 -129.22481304 73.84308602 -129.23266602 72.27441406 C-129.2440416 70.69977733 -129.26425614 69.12517454 -129.29418945 67.55078125 C-129.56337644 53.37861277 -128.01713111 39.82495666 -121.1875 27.125 C-120.84388428 26.46491943 -120.50026855 25.80483887 -120.14624023 25.12475586 C-117.04764916 19.35591459 -113.36752973 14.32813947 -108.9375 9.5 C-108.27363281 8.74460938 -107.60976563 7.98921875 -106.92578125 7.2109375 C-79.45358771 -22.34325223 -31.22567549 -24.98054039 0 0 Z " fill="#AFE2F8" transform="translate(438.9375,185.5)"/>
<path d="M0 0 C4.02058602 -0.11686443 8.04073082 -0.18747388 12.0625 -0.25 C13.19623047 -0.28351563 14.32996094 -0.31703125 15.49804688 -0.3515625 C22.23981362 -0.43018369 26.65804153 -0.28491755 32 4 C37.26717807 9.68273913 36.56048524 15.77416484 36.50793457 23.20922852 C36.51254535 24.57132159 36.51889946 25.93340969 36.52684355 27.2954874 C36.54353608 31.03300272 36.53529109 34.7701093 36.52289867 38.50762606 C36.51385011 42.540421 36.52781693 46.57314555 36.53881836 50.60592651 C36.55661027 58.50399427 36.55276063 66.40191002 36.5411678 74.29998374 C36.53213638 80.71856672 36.53090821 87.13710707 36.53526306 93.55569458 C36.53587599 94.46901851 36.53648893 95.38234244 36.53712043 96.32334286 C36.53839933 98.17870928 36.53969618 100.03407569 36.5410108 101.88944209 C36.55241856 119.28960124 36.53929981 136.68967612 36.51780933 154.08982146 C36.49993817 169.02183724 36.50304222 183.95372865 36.52148438 198.88574219 C36.54288762 216.22338757 36.55131991 233.56095908 36.53903532 250.89861584 C36.53776112 252.74717902 36.53650363 254.59574221 36.53526306 256.44430542 C36.53464596 257.35384761 36.53402886 258.2633898 36.53339306 259.20049387 C36.52993852 265.61179951 36.53577074 272.02305831 36.54518127 278.43435669 C36.55639657 286.2469982 36.55337113 294.05947894 36.5320583 301.87210202 C36.5215415 305.8587016 36.51743661 309.84503308 36.53065491 313.83163071 C36.54257187 317.48092709 36.53602834 321.1297068 36.5147447 324.77895629 C36.50815803 326.72475701 36.52122106 328.67059358 36.53497362 330.61635685 C36.43948796 341.21459568 36.43948796 341.21459568 32 346 C25.87587882 350.86066911 20.15563633 350.48432824 12.5625 350.25 C11.44939453 350.23195313 10.33628906 350.21390625 9.18945312 350.1953125 C6.45873354 350.14843319 3.72982614 350.08282819 1 350 C3.19320735 347.80679265 5.46458147 346.7122939 8.24609375 345.390625 C11.01182342 343.19775248 11.72983184 341.34801686 13 338 C13.45037259 333.65110232 13.40874987 329.31823216 13.38768005 324.94935608 C13.39185466 323.60447715 13.39733287 322.25960175 13.40399987 320.91473287 C13.41845671 317.22481987 13.41420908 313.53513019 13.40683305 309.84520495 C13.40210427 305.86352288 13.41460865 301.88188932 13.42485046 297.90022278 C13.44204936 290.10211042 13.44287624 282.30407859 13.43763756 274.50595219 C13.43359674 268.16795046 13.43503837 261.82997255 13.44038582 255.49197197 C13.44113424 254.59003821 13.44188266 253.68810444 13.44265376 252.75883935 C13.44418523 250.92658667 13.44572358 249.09433399 13.44726873 247.26208132 C13.46099766 230.07841846 13.45555327 212.89480113 13.44408352 195.71113931 C13.43415021 179.9896121 13.44709279 164.26820257 13.47101771 148.54669351 C13.49539819 132.40423036 13.5050192 116.26182204 13.49836498 100.11934084 C13.49487049 91.05638897 13.49712003 81.99352763 13.51461601 72.93058968 C13.52932483 65.21570018 13.52999074 57.50096495 13.5125451 49.78607852 C13.50402188 45.84998006 13.50191759 41.91415733 13.51719666 37.97807312 C13.53101465 34.37375836 13.52631842 30.76995628 13.50695742 27.1656714 C13.50140457 25.24645051 13.51549307 23.32720371 13.53031152 21.408032 C13.4731863 14.73862893 13.09860446 10.37241169 9 5 C6.72875651 3.37004376 6.72875651 3.37004376 4.25 2.5625 C3.45078125 2.25441406 2.6515625 1.94632812 1.828125 1.62890625 C1.22484375 1.42136719 0.6215625 1.21382813 0 1 C0 0.67 0 0.34 0 0 Z " fill="#5986CB" transform="translate(476,81)"/>
<path d="M0 0 C0.76421973 -0.00623996 1.52843946 -0.01247993 2.31581736 -0.01890898 C4.87862331 -0.03487401 7.44048276 -0.02222152 10.0032959 -0.00964355 C11.83974259 -0.01506313 13.67618493 -0.02218486 15.51261902 -0.03088379 C20.50226918 -0.04913965 25.49158901 -0.04204026 30.48124504 -0.02936745 C35.6990944 -0.01925151 40.91691518 -0.02862921 46.13476562 -0.03491211 C54.89779751 -0.04219261 63.66069462 -0.03259022 72.42370605 -0.0135498 C82.55987616 0.00821968 92.69572446 0.00116859 102.83188677 -0.02085543 C111.52922591 -0.03899792 120.22646808 -0.04157337 128.92382002 -0.03110075 C134.12071986 -0.0248595 139.31746836 -0.02404755 144.51435852 -0.0372467 C149.39983523 -0.04878783 154.2848964 -0.04081127 159.17032814 -0.01766968 C160.96503318 -0.01237329 162.7597731 -0.01391222 164.55446434 -0.02272034 C167.00122109 -0.03362303 169.4466395 -0.01997742 171.89331055 0 C172.96315178 -0.01338433 172.96315178 -0.01338433 174.05460596 -0.02703905 C177.41899941 0.02638515 179.17401946 0.30092963 181.88639069 2.36035919 C183.97377204 5.23346728 183.96321702 7.13270766 183.97790527 10.66418457 C183.98563965 12.44502441 183.98563965 12.44502441 183.99353027 14.26184082 C183.97806152 15.49805176 183.96259277 16.7342627 183.94665527 18.00793457 C183.9698584 19.86225098 183.9698584 19.86225098 183.99353027 21.75402832 C183.98837402 22.94125488 183.98321777 24.12848145 183.97790527 25.35168457 C183.97339355 26.43643066 183.96888184 27.52117676 183.9642334 28.63879395 C183.30332985 32.30244417 182.40130431 33.26762438 179.44665527 35.50793457 C176.77572262 35.89888199 174.51728142 36.04484984 171.84861755 36.00914001 C171.07960871 36.01467441 170.31059986 36.02020881 169.51828772 36.02591091 C166.93931344 36.03953341 164.36130427 36.02454017 161.78234863 36.00964355 C159.9344288 36.01342613 158.08651179 36.01892566 156.23860168 36.02601624 C151.21801584 36.03999518 146.19777176 36.02878437 141.17720485 36.01230502 C135.92819739 35.99847231 130.67921013 36.00491249 125.43019104 36.00843811 C116.61588013 36.0111414 107.8017053 35.99765355 98.98742676 35.9744873 C88.78879432 35.9478686 78.59038934 35.94613265 68.39173406 35.95787567 C58.58970976 35.96864433 48.78776794 35.96247409 38.9857502 35.94832039 C34.80995299 35.94255349 30.63421601 35.94264877 26.45841789 35.94738579 C21.54427147 35.95214836 16.63037502 35.94208383 11.71627617 35.92043114 C9.90986474 35.91485357 8.10342933 35.91440682 6.29701614 35.919384 C3.83696724 35.92531349 1.3776887 35.91287742 -1.08229065 35.89561462 C-1.80232193 35.90162467 -2.5223532 35.90763471 -3.26420361 35.91382688 C-6.1420289 35.87693557 -8.0914346 35.8281994 -10.49503231 34.16166782 C-13.20115793 29.93303944 -12.01738733 23.40842641 -11.99084473 18.57043457 C-12.0108252 17.2820166 -12.03080566 15.99359863 -12.0513916 14.6661377 C-12.05074707 13.42928223 -12.05010254 12.19242676 -12.04943848 10.91809082 C-12.0512915 9.78508545 -12.05314453 8.65208008 -12.05505371 7.48474121 C-10.88866841 0.56418844 -6.18051224 -0.07732177 0 0 Z " fill="#375E7E" transform="translate(62.5533447265625,347.4920654296875)"/>
<path d="M0 0 C7.84046904 5.05008377 12.41934538 13.10445689 14.9765625 21.90234375 C16.86041993 31.47288953 16.86041993 31.47288953 13.9765625 35.90234375 C10.45831739 38.24784049 9.11880556 38.48225778 4.9765625 37.90234375 C1.77563506 35.79264157 0.26181175 34.09784697 -0.63671875 30.33203125 C-0.93806634 28.40864751 -1.23225377 26.48412927 -1.51953125 24.55859375 C-2.3542549 20.15850011 -4.09810642 17.38587181 -7.640625 14.65625 C-13.3874221 11.21055631 -19.49426288 10.9019057 -26.0234375 11.90234375 C-31.50792994 13.91451143 -34.30735634 16.80495774 -37.15794182 21.91285896 C-38.57621485 25.17299379 -38.58894577 28.42406732 -38.55688477 31.91381836 C-38.56550034 32.68227585 -38.57411591 33.45073334 -38.58299255 34.24247742 C-38.60555452 36.76356424 -38.59893197 39.28353053 -38.58984375 41.8046875 C-38.59508386 43.5691409 -38.60136176 45.3335915 -38.60862732 47.09803772 C-38.6190136 50.78904437 -38.61449595 54.47966507 -38.59985352 58.1706543 C-38.58267215 62.88617583 -38.6061617 67.60047808 -38.64134312 72.31586361 C-38.66336974 75.95776854 -38.66186291 79.59938411 -38.6535778 83.24133492 C-38.65276109 84.97916564 -38.65957076 86.71701822 -38.67434883 88.4547863 C-39.06398073 100.15105876 -39.06398073 100.15105876 -34.4002533 110.5483551 C-30.20639282 114.67268276 -25.81781001 116.98906917 -19.9609375 117.33984375 C-14.08230023 117.28211572 -9.47421501 114.60596908 -5.0234375 110.90234375 C-1.19137858 105.44902913 -0.82352399 100.813631 -0.7734375 94.27734375 C-0.7528125 93.59671875 -0.7321875 92.91609375 -0.7109375 92.21484375 C-0.6586482 90.00748127 -0.6586482 90.00748127 -1.0234375 86.90234375 C-4.19960129 84.78490122 -5.47054578 84.64408509 -9.1484375 84.27734375 C-15.69205286 83.17516981 -19.92592383 80.06691827 -24.0234375 74.90234375 C-27.04998398 69.14293686 -27.47825448 64.4010918 -27.45703125 57.953125 C-27.4622731 57.0180864 -27.46751495 56.08304779 -27.47291565 55.11967468 C-27.47930997 53.15393056 -27.47803261 51.18814804 -27.46948242 49.22241211 C-27.46093324 46.21334304 -27.48983258 43.2061494 -27.52148438 40.19726562 C-27.52309561 38.28255265 -27.52252035 36.36783632 -27.51953125 34.453125 C-27.53076523 33.55515701 -27.54199921 32.65718903 -27.55357361 31.73200989 C-27.48427253 25.54137401 -27.48427253 25.54137401 -25.17602539 22.34057617 C-22.17871484 20.33794983 -20.55927961 20.25290336 -17.0234375 20.90234375 C-14.35167211 22.89375526 -12.35381047 24.4895043 -11.57025146 27.84039307 C-11.39868425 30.17876375 -11.38362583 32.47206438 -11.421875 34.81640625 C-11.41386871 35.66786224 -11.40586243 36.51931824 -11.39761353 37.39657593 C-11.37458607 40.10732017 -11.38399795 42.81655965 -11.3984375 45.52734375 C-11.40228277 48.24498563 -11.39888328 50.96196772 -11.37783813 53.67953491 C-11.36572986 55.36782874 -11.36844974 57.05630807 -11.38754272 58.74453735 C-11.50122338 62.97685362 -11.50122338 62.97685362 -9.64102173 66.6055603 C-7.54213486 68.28819401 -5.92425568 68.47350397 -3.2734375 68.83984375 C2.63456943 69.92183339 6.86426205 71.26435766 10.703125 76.05859375 C16.80717643 84.96877309 17.21967077 94.39475284 15.48046875 104.8984375 C12.83374941 114.48344933 7.08080474 123.30669421 -1.58984375 128.4140625 C-10.80763356 133.09675339 -20.60441145 134.73097693 -30.796875 132.21875 C-33.03098561 131.27415236 -34.98631422 130.21688022 -37.0234375 128.90234375 C-38.06564453 128.24878906 -38.06564453 128.24878906 -39.12890625 127.58203125 C-47.65995403 121.7239384 -52.59607061 113.91916227 -55.0234375 103.90234375 C-55.74018639 97.86141394 -55.58786964 91.75245122 -55.5546875 85.6796875 C-55.55738828 83.92574347 -55.56127555 82.1718009 -55.56628418 80.41786194 C-55.57215017 76.75914113 -55.56370962 73.10081344 -55.54492188 69.44213867 C-55.52211692 64.77638731 -55.53528341 60.1115558 -55.55921173 55.44583797 C-55.57373419 51.82960706 -55.56903464 48.21359071 -55.55870056 44.59735298 C-55.55605193 42.87793427 -55.55923666 41.15849542 -55.56861877 39.43910027 C-55.62586223 26.00559549 -53.97657755 15.84878953 -44.8359375 5.40234375 C-31.40190886 -6.53901505 -16.04391986 -8.70336193 0 0 Z " fill="#AFE2F8" transform="translate(409.0234375,218.09765625)"/>
<path d="M0 0 C0.78463623 -0.01482422 1.56927246 -0.02964844 2.37768555 -0.04492188 C6.32302349 0.02573336 8.39407404 0.30559079 11.828125 2.4140625 C13.8125 4.5625 13.8125 4.5625 14.375 7.5 C13.66774979 11.35058446 12.63073724 12.84780822 9.8125 15.5625 C7.06185413 16.07067518 4.87047491 16.3072755 2.125 16.3125 C-2.39612561 16.00530671 -2.39612561 16.00530671 -6.1875 17.5625 C-8.18040785 37.86542048 -3.69182166 55.40197744 8.5625 71.875 C18.00047905 83.07352514 32.40523032 91.03387716 46.8125 93.5625 C49.10267445 93.71237364 51.39463207 93.83691299 53.6875 93.9375 C57.92876091 94.19469894 59.49982231 94.35601473 63.125 96.75 C65.13636153 100.10226922 65.54757959 101.72375101 64.8125 105.5625 C63.29296875 107.7109375 63.29296875 107.7109375 60.8125 109.5625 C57.89765695 110.00093594 55.4718156 110.18093656 52.5625 110.125 C51.76763184 110.11549316 50.97276367 110.10598633 50.15380859 110.09619141 C33.02488855 109.50765056 17.62439272 101.53143414 4.8125 90.5625 C3.99394531 89.94375 3.17539062 89.325 2.33203125 88.6875 C-10.64923405 77.73895996 -20.13751631 58.64184865 -21.99560547 41.95849609 C-22.40630897 36.83045005 -22.49836751 31.70475981 -22.5625 26.5625 C-22.59988281 25.42554688 -22.63726562 24.28859375 -22.67578125 23.1171875 C-22.75076675 15.93524318 -22.00502221 11.05182193 -17.1875 5.5625 C-12.09719154 0.4569807 -6.93943664 0.09434803 0 0 Z " fill="#B0E2F8" transform="translate(332.1875,285.4375)"/>
<path d="M0 0 C1.15108246 -0.00990463 2.30216492 -0.01980927 3.48812866 -0.03001404 C4.75210983 -0.02551239 6.016091 -0.02101074 7.31837463 -0.01637268 C8.66206938 -0.02207451 10.00575929 -0.02903804 11.34944153 -0.03717041 C15.0003121 -0.05513846 18.65094282 -0.05392662 22.30184436 -0.04822803 C25.34864796 -0.04514124 28.39540515 -0.05122296 31.44220215 -0.05726677 C38.62964384 -0.07132251 45.8169667 -0.0697422 53.00440979 -0.05836487 C60.42139135 -0.04688369 67.83801132 -0.06095667 75.25494522 -0.08776134 C81.62107118 -0.10990771 87.98708356 -0.11655812 94.35324532 -0.11068493 C98.15626402 -0.10731142 101.95905094 -0.10975619 105.76203728 -0.12693596 C109.33839561 -0.14238623 112.91421781 -0.13847166 116.49055481 -0.11963081 C118.42922799 -0.11417857 120.36792512 -0.12847383 122.30654907 -0.14332581 C124.0374025 -0.1285746 124.0374025 -0.1285746 125.80322266 -0.11352539 C127.30727488 -0.11321146 127.30727488 -0.11321146 128.841712 -0.1128912 C132.19943939 0.52779931 133.38470097 1.72449446 135.46510315 4.38768005 C136.19511678 8.19997346 135.85900712 9.78411596 133.73500061 13.03865051 C129.40440591 17.09839549 123.13293241 16.08006987 117.58424377 16.03465271 C115.62009773 16.0477951 115.62009773 16.0477951 113.61627197 16.061203 C110.03139979 16.0839666 106.44724834 16.07517292 102.86236382 16.05930758 C99.10773171 16.04663299 95.35316058 16.05839299 91.598526 16.0662384 C85.29368531 16.0753305 78.98913762 16.06335887 72.68434143 16.03953552 C65.39902022 16.01232474 58.11439867 16.02113924 50.82909441 16.04866755 C44.56988306 16.07137043 38.31088212 16.07455305 32.05164289 16.0614742 C28.3151042 16.05368603 24.57889418 16.05262023 20.84237671 16.06915665 C16.67648503 16.08630607 12.51179609 16.06252693 8.34596252 16.03465271 C7.10944443 16.04477386 5.87292633 16.05489502 4.59893799 16.06532288 C-4.70088385 15.94985605 -4.70088385 15.94985605 -7.83995056 13.07380676 C-9.53489685 10.38768005 -9.53489685 10.38768005 -9.53489685 6.76268005 C-7.84004719 1.04256244 -5.85823247 0.01420188 0 0 Z " fill="#2B4D66" transform="translate(52.53489685058594,310.61231994628906)"/>
<path d="M0 0 C1.06559143 -0.0087616 2.13118286 -0.01752319 3.22906494 -0.02655029 C6.749479 -0.04854695 10.26863579 -0.03398934 13.7890625 -0.01708984 C16.23616782 -0.02045787 18.6832715 -0.02531037 21.13037109 -0.03158569 C26.25830008 -0.03895744 31.38579352 -0.02824101 36.51367188 -0.00488281 C43.08807035 0.02360421 49.66144829 0.00720199 56.23580933 -0.02274513 C61.28873388 -0.04080938 66.34141632 -0.03506388 71.39434814 -0.02210617 C73.81846233 -0.01876979 76.24259846 -0.02286731 78.66668701 -0.03450394 C82.05442563 -0.04719736 85.44050969 -0.02785394 88.828125 0 C89.83087463 -0.01012115 90.83362427 -0.02024231 91.86676025 -0.03067017 C96.51206318 0.04011925 98.71752887 0.12995709 102.53662109 2.9647522 C104.4140625 5.64697266 104.4140625 5.64697266 105.0390625 9.20947266 C104.4140625 12.64697266 104.4140625 12.64697266 102.54335022 14.82946777 C97.97010509 17.48562984 93.92267535 17.20610463 88.72045898 17.16455078 C87.64350769 17.17156006 86.5665564 17.17856934 85.45697021 17.18579102 C81.89943614 17.20338714 78.34269832 17.19174263 74.78515625 17.17822266 C72.31323595 17.18091689 69.84131669 17.18479873 67.36940002 17.18981934 C62.19025578 17.19571644 57.01138755 17.18714342 51.83227539 17.16845703 C45.18840565 17.14565595 38.54518181 17.15879729 31.90133572 17.18274689 C26.79786801 17.19718864 21.69455391 17.19260643 16.59108162 17.18223572 C14.14102159 17.17956458 11.69094768 17.1828517 9.24090385 17.19215393 C5.81964952 17.20229364 2.39944729 17.1868536 -1.02172852 17.16455078 C-2.03742416 17.17264771 -3.05311981 17.18074463 -4.09959412 17.18908691 C-10.92216289 17.10654009 -10.92216289 17.10654009 -14.21104431 14.82946777 C-16.27428755 11.55429096 -16.18393533 9.43429222 -15.5859375 5.64697266 C-11.334054 -0.44017702 -6.82504542 -0.06888792 0 0 Z " fill="#F1EDEF" transform="translate(285.5859375,115.35302734375)"/>
<path d="M0 0 C1.49575562 -0.01029488 1.49575562 -0.01029488 3.02172852 -0.02079773 C6.32005019 -0.03910845 9.61789814 -0.03522201 12.91625977 -0.02954102 C15.20785172 -0.03410079 17.4994423 -0.03940575 19.79103088 -0.04542542 C24.5952815 -0.05436496 29.39936597 -0.05192375 34.20361328 -0.04199219 C40.36201197 -0.03050226 46.51983731 -0.0507106 52.67816067 -0.07990932 C57.41107327 -0.09825041 62.14384796 -0.09798299 66.87678719 -0.0922718 C69.14739855 -0.09211833 71.4180191 -0.0981841 73.68859673 -0.11056328 C76.86307677 -0.12543129 80.03649094 -0.11482623 83.2109375 -0.09765625 C84.14980301 -0.10732422 85.08866852 -0.11699219 86.0559845 -0.12695312 C90.25957726 -0.0793142 92.58453747 0.05355089 96.25746155 2.2518158 C98.17016602 4.40405273 98.17016602 4.40405273 98.73266602 7.34155273 C98.00985141 11.27687668 97.14516188 12.7005711 94.17016602 15.40405273 C90.87183347 16.16316423 87.62078495 16.08694373 84.24853516 16.05102539 C82.73814919 16.06416779 82.73814919 16.06416779 81.19725037 16.07757568 C77.86617029 16.09959595 74.53641603 16.08500564 71.20532227 16.06811523 C68.89130905 16.07148285 66.57729756 16.07633501 64.26329041 16.08261108 C59.41184663 16.08998624 54.56086297 16.07925659 49.70947266 16.0559082 C43.49038294 16.02743671 37.27237279 16.04381113 31.05332279 16.07377052 C26.27404143 16.09183927 21.49501593 16.08608696 16.71572685 16.07313156 C14.42279368 16.06979559 12.12983729 16.07389128 9.83693123 16.08552933 C6.63105905 16.09822859 3.42693349 16.07887121 0.22119141 16.05102539 C-0.72702484 16.06114655 -1.67524109 16.0712677 -2.65219116 16.08169556 C-7.18274654 16.00879049 -9.21772193 15.85738868 -12.95411682 13.09017944 C-14.82983398 10.40405273 -14.82983398 10.40405273 -14.89233398 6.77905273 C-13.82983398 3.40405273 -13.82983398 3.40405273 -12.37779236 1.71836853 C-8.37116314 -0.34837484 -4.44432535 -0.02126369 0 0 Z " fill="#2B4D66" transform="translate(57.829833984375,285.595947265625)"/>
<path d="M0 0 C19.47 0 38.94 0 59 0 C59 6.93 59 13.86 59 21 C39.53 21 20.06 21 0 21 C0 14.07 0 7.14 0 0 Z " fill="#FECF64" transform="translate(80,198)"/>
<path d="M0 0 C1.10472153 -0.01583633 2.20944305 -0.03167267 3.34764099 -0.04798889 C4.53624222 -0.04302902 5.72484344 -0.03806915 6.94946289 -0.03295898 C8.78765343 -0.04225685 8.78765343 -0.04225685 10.66297913 -0.05174255 C13.254478 -0.05884634 15.84602245 -0.05565711 18.4375 -0.04296875 C22.40393078 -0.02911626 26.36799752 -0.06315548 30.33422852 -0.10131836 C32.85180722 -0.10226965 35.36938888 -0.10041022 37.88696289 -0.09545898 C39.07353989 -0.10871719 40.26011688 -0.1219754 41.48265076 -0.13563538 C50.63906959 -0.03205099 50.63906959 -0.03205099 53.73681641 2.88134766 C55.88151404 6.1356919 56.21658091 7.71098023 55.48461914 11.53344727 C53.61752004 13.83620283 52.12814173 15.21168597 49.48461914 16.53344727 C47.78577147 16.64929267 46.08251628 16.70301873 44.37988281 16.72631836 C43.31505173 16.74238129 42.25022064 16.75844421 41.15312195 16.7749939 C36.28112368 16.8193792 31.40926245 16.86050579 26.53710938 16.88354492 C23.9657283 16.90011247 21.39439342 16.92741256 18.82324219 16.96557617 C15.12028047 17.0202728 11.41839889 17.04220885 7.71508789 17.05688477 C6.56598434 17.07955414 5.4168808 17.10222351 4.23295593 17.12557983 C-3.71711788 17.10448865 -3.71711788 17.10448865 -7.74462891 14.22338867 C-10.07096151 10.68946717 -10.1948002 8.68545435 -9.51538086 4.53344727 C-6.61435367 0.78969897 -4.67497355 0.02984763 0 0 Z " fill="#F1EDEF" transform="translate(279.515380859375,142.466552734375)"/>
<path d="M0 0 C5.28 0 10.56 0 16 0 C16 8.25 16 16.5 16 25 C22.93 25 29.86 25 37 25 C37 29.95 37 34.9 37 40 C32.37197778 40.11493433 27.74891914 40.21440625 23.12060547 40.2746582 C21.54719249 40.29977448 19.97389588 40.33387472 18.40087891 40.37719727 C16.13675228 40.43798399 13.87416978 40.46623582 11.609375 40.48828125 C10.55759064 40.52699089 10.55759064 40.52699089 9.48455811 40.56648254 C5.98007009 40.56848667 4.27852772 40.22970215 1.54882812 37.97851562 C-0.41294216 34.20588046 -0.50635424 31.00238627 -0.390625 26.85546875 C-0.38496521 26.08568192 -0.37930542 25.31589508 -0.37347412 24.52278137 C-0.35117872 22.07704057 -0.30099875 19.6327939 -0.25 17.1875 C-0.229926 15.52410978 -0.2116768 13.86069647 -0.1953125 12.19726562 C-0.15474605 8.13047928 -0.07645349 4.06690111 0 0 Z " fill="#FEC250" transform="translate(139,124)"/>
<path d="M0 0 C0.65880661 0.00707474 1.31761322 0.01414948 1.99638367 0.0214386 C4.08601909 0.04927146 6.17290351 0.11197306 8.26171875 0.17578125 C9.68420589 0.2008792 11.10673534 0.22368977 12.52929688 0.24414062 C16.00449785 0.29479953 19.47380688 0.39262771 22.94921875 0.48828125 C22.94921875 8.73828125 22.94921875 16.98828125 22.94921875 25.48828125 C11.39921875 25.48828125 -0.15078125 25.48828125 -12.05078125 25.48828125 C-12.15390625 22.29140625 -12.25703125 19.09453125 -12.36328125 15.80078125 C-12.40880127 14.80216064 -12.45432129 13.80354004 -12.5012207 12.7746582 C-12.5137085 11.97503662 -12.52619629 11.17541504 -12.5390625 10.3515625 C-12.56524658 9.53985596 -12.59143066 8.72814941 -12.6184082 7.8918457 C-11.0353728 1.18862695 -6.20304305 -0.13197964 0 0 Z " fill="#FDCF64" transform="translate(63.05078125,123.51171875)"/>
<path d="M0 0 C4.02163986 3.53536315 7.18053604 7.6269896 10.3125 11.9375 C10.9940918 12.82985352 10.9940918 12.82985352 11.68945312 13.74023438 C13.67851695 16.47706655 14.90175328 18.56922591 15.66015625 21.89453125 C14.65279822 26.63328646 11.99691872 29.91858441 9.125 33.75 C8.56941406 34.51699219 8.01382812 35.28398437 7.44140625 36.07421875 C3.44130479 41.55869521 3.44130479 41.55869521 1 44 C-5.96328294 44.67386609 -5.96328294 44.67386609 -9.5 42.375 C-11.44680964 39.2925514 -11.36030082 37.60745641 -11 34 C-9.35242331 31.26773442 -7.44047165 28.94116677 -5.43359375 26.46484375 C-3.77016195 24.10998354 -3.77016195 24.10998354 -4.09375 21.46875 C-5.08488166 18.76877065 -6.33374552 16.85524531 -8.0625 14.5625 C-10.03525615 11.70081518 -10.97092292 10.15410852 -11.625 6.6875 C-10.13070964 0.26205144 -6.18347486 -0.97633814 0 0 Z " fill="#2C4E68" transform="translate(270,260)"/>
<path d="M0 0 C3.10398978 -0.08710289 6.20766548 -0.14042309 9.3125 -0.1875 C10.19357422 -0.21263672 11.07464844 -0.23777344 11.98242188 -0.26367188 C13.25375977 -0.27817383 13.25375977 -0.27817383 14.55078125 -0.29296875 C15.72120972 -0.31653442 15.72120972 -0.31653442 16.9152832 -0.34057617 C19 0 19 0 20.75097656 1.13964844 C23.5855503 5.36158977 22.46542389 11.53558845 22.4375 16.4375 C22.4674707 18.29858398 22.4674707 18.29858398 22.49804688 20.19726562 C22.49740234 21.38900391 22.49675781 22.58074219 22.49609375 23.80859375 C22.49887329 25.44526001 22.49887329 25.44526001 22.50170898 27.11499023 C21.87959481 30.69237381 20.90860416 31.87332301 18 34 C15.89355469 34.45410156 15.89355469 34.45410156 13.671875 34.390625 C12.87265625 34.37773437 12.0734375 34.36484375 11.25 34.3515625 C10.425 34.31804687 9.6 34.28453125 8.75 34.25 C7.48929688 34.22292969 7.48929688 34.22292969 6.203125 34.1953125 C4.13492605 34.14830798 2.06731559 34.07656724 0 34 C0.33 33.01 0.66 32.02 1 31 C1.09525873 28.81282368 1.13073132 26.62284251 1.1328125 24.43359375 C1.13410156 23.14388672 1.13539063 21.85417969 1.13671875 20.52539062 C1.13462402 19.85483643 1.1325293 19.18428223 1.13037109 18.4934082 C1.12501043 16.4414941 1.13032881 14.38979801 1.13671875 12.33789062 C1.13478516 10.40526367 1.13478516 10.40526367 1.1328125 8.43359375 C1.13168457 7.24822021 1.13055664 6.06284668 1.12939453 4.84155273 C1.19506341 2.05174041 1.19506341 2.05174041 0 0 Z " fill="#2C4E67" transform="translate(224,349)"/>
<path d="M0 0 C0.66 -0.01289063 1.32 -0.02578125 2 -0.0390625 C5.21269775 1.02765355 6.26556676 2.77231375 8 5.625 C8.53125 9.21875 8.53125 9.21875 8.5 13.125 C8.5103125 14.4140625 8.520625 15.703125 8.53125 17.03125 C7.92676365 21.12042235 6.93270773 22.76680753 4 25.625 C1.0625 26.6875 1.0625 26.6875 -2 26.625 C-4.74716387 24.85460551 -6.53145922 23.56208156 -8 20.625 C-8.17721577 18.17012577 -8.27736821 15.76938336 -8.3125 13.3125 C-8.34988281 11.99636719 -8.38726562 10.68023437 -8.42578125 9.32421875 C-7.83124554 4.15884884 -5.72154895 -0.111749 0 0 Z " fill="#AEE1F7" transform="translate(417,261.375)"/>
<path d="M0 0 C3.375 1 3.375 1 5.05859375 2.5625 C6.9070147 5.98509548 6.8502878 9.20747929 6.8125 13 C6.83248047 13.7115625 6.85246094 14.423125 6.87304688 15.15625 C6.86982841 18.60644807 6.63460818 20.63860712 4.6015625 23.46875 C0.92346453 25.99824896 -1.22887677 25.55823787 -5.625 25 C-8.48088826 22.50191095 -8.64374061 20.84132953 -9.09375 17.03125 C-9.1201987 15.521029 -9.13012884 14.01044388 -9.125 12.5 C-9.15335937 11.74074219 -9.18171875 10.98148437 -9.2109375 10.19921875 C-9.22516083 6.13845676 -9.14280336 4.56870606 -6.3203125 1.46875 C-3.625 0 -3.625 0 0 0 Z " fill="#AFE2F8" transform="translate(390.625,301)"/>
</svg>
